# xmcd
#
# Track frame offsets: 
#        150
#        18067
#        35462
#        56557
#        74870
#        93802
#        112497
#        132632
#        151052
#        174187
#
# Disc length: 2492 seconds
#
# Revision: 10
# Processed by: cddbd v1.5.2PL0 Copyright (c) Steve Scherf et al.
# Submitted via: ExactAudioCopy v1.0b3
#
DISCID=8409ba0a
DTITLE=George Benson - 20-20
DYEAR=1985
DGENRE=Blues
TTITLE0=No One Emotion
TTITLE1=Please Don't Walk Away
TTITLE2=I Just Wanna Hang Around You
TTITLE3=Nothing's Gonna Change My Love For You
TTITLE4=Beyond The Sea (La Mer)
TTITLE5=20-20
TTITLE6=New Day
TTITLE7=Hold Me
TTITLE8=Stand Up
TTITLE9=You Are The Love Of My Life
EXTD=
EXTT0=
EXTT1=
EXTT2=
EXTT3=
EXTT4=
EXTT5=
EXTT6=
EXTT7=
EXTT8=
EXTT9=
PLAYORDER=
